<?xml version='1.0' encoding='utf-8'?>
<svg xmlns="http://www.w3.org/2000/svg" width="1920" height="1080" viewBox="0 0 1920 1080" data-theme="dark" data-semantic-intent="sequence" data-relation-type="sequence" data-site-visual-identity="heritage-amber">
  <style>
        @font-face {
            font-family: 'Inter';
            src: url('assets/fonts/Inter-Regular.ttf') format('truetype');
            font-weight: 400;
            font-style: normal;
            font-display: swap;
        }
        @font-face {
            font-family: 'Inter';
            src: url('assets/fonts/Inter-Bold.ttf') format('truetype');
            font-weight: 600;
            font-style: normal;
            font-display: swap;
        }
        @font-face {
            font-family: 'Inter';
            src: url('assets/fonts/Inter-Bold.ttf') format('truetype');
            font-weight: 800;
            font-style: normal;
            font-display: swap;
        }
        
:root {
    --background: #0f172a;
    --panel: #1e293b;
    --primary-text: #f1f5f9;
    --muted-text: #94a3b8;
    --inverse-text: #0f172a;
    --border: #334155;
    --shadow-color: #000000;
    --icon-pad-bg: #1e293b;
    --art-glow: #7dd3fc;
    --art-glow-opacity: 0.18;
    --art-sheen: #ffffff;
    --art-sheen-opacity: 0.18;
    --art-shadow: #000000;
    --art-shadow-opacity: 0.28;
    --art-muted-line: #64748b;
    --art-panel-tint: #1e293b;
    --semantic-risk: #f87171;
    --semantic-warning: #fb923c;
    --semantic-uncertain: #fbbf24;
    --semantic-evidence: #60a5fa;
    --semantic-claim: #c084fc;
    --semantic-positive: #4ade80;
    --semantic-outcome: #22d3ee;
    --font-family: 'Inter', 'Segoe UI', 'Kalam', Roboto, Helvetica, Arial, sans-serif;
    --radius-xl: 16px;
    --font-family-headline: 'Segoe UI Variable Display', 'Aptos Display', 'Inter', 'Segoe UI', Helvetica, Arial, sans-serif;
    --font-family-body: 'Segoe UI Variable Text', 'Aptos', 'Inter', 'Segoe UI', Helvetica, Arial, sans-serif;
    --font-heading: var(--font-family-headline);
    --font-body: var(--font-family-body);
    --font-size-h1: 64px;
    --font-size-h2: 42px;
    --font-size-h3: 29px;
    --font-size-body: 21px;
    --font-size-caption: 17px;
    --secondary-text: var(--muted-text);
    --panel-border: var(--border);
    --font-weight-normal: 400;
    --font-weight-medium: 500;
    --font-weight-semibold: 600;
    --font-weight-bold: 700;
    --spacing-gutter-pct: 0.07;
    --spacing-top-pct: 0.15;
    --spacing-bottom-pct: 0.07;
    --spacing-title-y-pct: 0.055;
    --accent-1: #fbbf24;
    --accent-2: #fb923c;
    --accent-3: #f59e0b;
    --accent-4: #fca5a5;
    --accent-5: #d6a66f;
    --accent-6: #7dd3fc;
}
:root[data-theme="dark"] {
    --background: #0f172a;
    --panel: #1e293b;
    --primary-text: #f1f5f9;
    --muted-text: #94a3b8;
    --inverse-text: #0f172a;
    --border: #334155;
    --shadow-color: #000000;
    --icon-pad-bg: #1e293b;
    --art-glow: #7dd3fc;
    --art-glow-opacity: 0.18;
    --art-sheen: #ffffff;
    --art-sheen-opacity: 0.18;
    --art-shadow: #000000;
    --art-shadow-opacity: 0.28;
    --art-muted-line: #64748b;
    --art-panel-tint: #1e293b;
    --semantic-risk: #f87171;
    --semantic-warning: #fb923c;
    --semantic-uncertain: #fbbf24;
    --semantic-evidence: #60a5fa;
    --semantic-claim: #c084fc;
    --semantic-positive: #4ade80;
    --semantic-outcome: #22d3ee;
    --accent-1: #fbbf24;
    --accent-2: #fb923c;
    --accent-3: #f59e0b;
    --accent-4: #fca5a5;
    --accent-5: #d6a66f;
    --accent-6: #7dd3fc;
}
:root[data-theme="light"] {
    --background: #f8fafc;
    --panel: #ffffff;
    --primary-text: #0f172a;
    --muted-text: #64748b;
    --inverse-text: #ffffff;
    --border: #e2e8f0;
    --shadow-color: #000000;
    --icon-pad-bg: #1e293b;
    --art-glow: #0891b2;
    --art-glow-opacity: 0.10;
    --art-sheen: #ffffff;
    --art-sheen-opacity: 0.34;
    --art-shadow: #0f172a;
    --art-shadow-opacity: 0.14;
    --art-muted-line: #94a3b8;
    --art-panel-tint: #f1f5f9;
    --semantic-risk: #b91c1c;
    --semantic-warning: #c2410c;
    --semantic-uncertain: #a16207;
    --semantic-evidence: #1d4ed8;
    --semantic-claim: #6d28d9;
    --semantic-positive: #15803d;
    --semantic-outcome: #0e7490;
    --accent-1: #a16207;
    --accent-2: #c2410c;
    --accent-3: #b45309;
    --accent-4: #b91c1c;
    --accent-5: #92400e;
    --accent-6: #0369a1;
}</style>
  <rect x="0" y="0" width="1.92E+3" height="1.08E+3" fill="#0f172a" stroke="none" id="programmatic_background"/>
  <line id="HEADER_DECOR" x1="960.0" x2="1080.0" y1="135.0" y2="135.0" stroke="var(--accent-1)" stroke-width="6" stroke-linecap="round"/>
  <defs>
    <pattern id="svgc7507d82-napkin-hatch" patternUnits="userSpaceOnUse" width="12" height="12">
      <path d="M -3 12 L 12 -3 M 0 15 L 15 0" fill="none" stroke="var(--primary-text)" stroke-width="1" stroke-opacity="0.05"/>
    </pattern>
    <radialGradient id="svgc7507d82-universal-edge-vignette" cx="50%" cy="50%" r="72%">
      <stop offset="0%" stop-color="var(--background)" stop-opacity="0"/>
      <stop offset="72%" stop-color="var(--background)" stop-opacity="0.12"/>
      <stop offset="100%" stop-color="var(--primary-text)" stop-opacity="0.08"/>
    </radialGradient>
    <linearGradient id="svgc7507d82-universal-surface-sheen" x1="0%" y1="0%" x2="100%" y2="100%">
      <stop offset="0%" stop-color="var(--art-sheen)" stop-opacity="var(--art-sheen-opacity)"/>
      <stop offset="46%" stop-color="var(--art-sheen)" stop-opacity="0.035"/>
      <stop offset="100%" stop-color="var(--art-panel-tint)" stop-opacity="0.14"/>
    </linearGradient>
    <radialGradient id="svgc7507d82-universal-icon-aura" cx="50%" cy="42%" r="64%">
      <stop offset="0%" stop-color="var(--art-glow)" stop-opacity="var(--art-glow-opacity)"/>
      <stop offset="100%" stop-color="var(--background)" stop-opacity="0"/>
    </radialGradient>
    <filter id="svgc7507d82-text-glow" x="-20%" y="-20%" width="140%" height="140%">
      <feDropShadow dx="0" dy="0" stdDeviation="2" flood-color="#000000" flood-opacity="0.4"/>
    </filter>
    <filter id="svgc7507d82-shadow" x="-30%" y="-30%" width="160%" height="160%">
      <feDropShadow dx="0" dy="2" stdDeviation="3" flood-color="#000000" flood-opacity="0.08"/>
      <feDropShadow dx="0" dy="6" stdDeviation="10" flood-color="#000000" flood-opacity="0.12"/>
    </filter>
    <marker id="svgc7507d82-arrowhead" markerWidth="10" markerHeight="7" refX="9" refY="3.5" orient="auto" markerUnits="strokeWidth">
      <polygon points="0 0, 10 3.5, 0 7" fill="var(--muted-text)" opacity="0.6"/>
    </marker>
    <marker id="svgc7507d82-PHX_SEQUENCE_DIRECTION_ARROW" markerWidth="18" markerHeight="18" refX="16" refY="9" orient="auto" markerUnits="userSpaceOnUse">
      <path d="M 0 0 L 18 9 L 0 18 Z" fill="var(--muted-text)" opacity="0.9"/>
    </marker>
  </defs>
  <rect width="100%" height="100%" fill="var(--background)" id="CANVAS_BG"/>
  <rect width="100%" height="100%" fill="url(#svgc7507d82-napkin-hatch)"/>
  <rect id="UNIVERSAL_EDGE_VIGNETTE" width="100%" height="100%" fill="url(#svgc7507d82-universal-edge-vignette)" opacity="0.62"/>
  <text id="TITLE" x="960.0" y="59" text-anchor="middle" font-size="63" font-weight="700" fill="#f1f5f9" style="font-size: 69px; font-family: 'Segoe UI Variable Display', 'Aptos Display', 'Inter', 'Segoe UI', Helvetica, Arial, sans-serif; font-weight: 800; font-kerning: normal; font-feature-settings: &quot;kern&quot; 1, &quot;liga&quot; 1; letter-spacing:-1.2px;" data-final-font-size="69">
    <tspan x="960.0" dy="70.47px">Maureen Puddy Encounter Key Stages</tspan>
  </text>
  <rect id="TITLE_FRAME" x="134" y="59" width="1652" height="103" fill="none"/>
  <g id="DIAGRAM_SCALER" transform="translate(50.6, 32.5) scale(0.95)">
    <line x1="120" y1="675" x2="1800" y2="675" stroke="var(--panel)" stroke-width="3" stroke-linecap="round" marker-end="url(#svgc7507d82-PHX_SEQUENCE_DIRECTION_ARROW)" data-direction-cue="forward"/>
    <g transform="translate(345.0, 675.0)">
      <line x1="0" y1="0" x2="0" y2="-180" stroke="var(--accent-1)" stroke-width="2"/>
      <circle id="ITEM_1_NODE" cx="0" cy="-180" r="50" fill="var(--background)" stroke="var(--accent-1)" stroke-width="2" stroke-opacity="0.58" data-badge-layer="outline"/>
      <g transform="translate(0.0, 45.0)">
        <rect x="-150" y="-15" width="300" height="165" rx="12" fill="var(--panel)" id="ITEM_1_BG" stroke="var(--accent-1)" stroke-width="2"/>
        <text id="ITEM_1_HEAD" text-anchor="middle" font-weight="bold" font-size="27" fill="var(--accent-1)" x="0.0" y="0.0" data-bg-id="ITEM_1_BG" fill-opacity="1.0" stroke="none" style="font-size: 31px; font-family: 'Segoe UI Variable Display', 'Aptos Display', 'Inter', 'Segoe UI', Helvetica, Arial, sans-serif; font-weight: 700; font-kerning: normal; font-feature-settings: &quot;kern&quot; 1, &quot;liga&quot; 1; letter-spacing:-0.4px;" data-final-font-size="31">
          <tspan x="0.0" dy="34.02px">Initial Sightings</tspan>
        </text>
        <rect id="ITEM_1_HEAD_FRAME" x="-135" y="0" width="270" height="51" fill="none"/>
        <text id="ITEM_1_BODY" text-anchor="middle" font-size="19.5" fill="var(--primary-text)" x="0.0" y="60.0" data-bg-id="ITEM_1_BG" style="font-size: 23px; font-family: 'Segoe UI Variable Text', 'Aptos', 'Inter', 'Segoe UI', Helvetica, Arial, sans-serif; font-weight: 400; font-kerning: normal; font-feature-settings: &quot;kern&quot; 1, &quot;liga&quot; 1;" data-final-font-size="23">
          <tspan x="0.0" dy="31.82px">Puddy reports large blue</tspan>
          <tspan x="0.0" dy="26.45px">glowing objects in 1972</tspan>
        </text>
        <rect id="ITEM_1_BODY_FRAME" x="-152" y="60" width="304" height="120" fill="none" data-side-overflow-fix="38.0|38.0"/>
      </g>
      <circle id="ITEM_1_PAD" cx="0" cy="-180" r="50" fill="var(--icon-pad-bg)" stroke="var(--accent-1)" opacity="1" fill-opacity="0.9" stroke-width="2" stroke-opacity="0.72" data-badge-layer="pad"/>
      <circle id="ITEM_1_PAD_INNER" cx="0" cy="-180" r="39.00" fill="var(--accent-1)" fill-opacity="0.12" stroke="none" data-badge-layer="tint"/>
      <circle cx="0" cy="-180" r="40" fill="none" stroke="var(--accent-1)" stroke-width="3" stroke-dasharray="6 4" display="none" data-suppressed-decoration="redundant-badge-ring"/>
      <g id="ITEM_1_ICON" transform="translate(-30.0, -210.0)" data-icon-size="60" stroke-linecap="round" stroke-linejoin="round" data-badge-treatment="clean">
        <g transform="translate(-16.22222222222222,-16.22222222222222) scale(3.8518518518518516)" vector-effect="non-scaling-stroke" stroke-width="2.43" stroke-linecap="round" stroke-linejoin="round" stroke-opacity="1.0">
          <path d="M3 12c0 1.657 4.03 3 9 3s9 -1.343 9 -3" vector-effect="non-scaling-stroke" fill="none" stroke="#f1f5f9"/>
          <path d="M12 12m-9 0a9 9 0 1 0 18 0a9 9 0 1 0 -18 0" vector-effect="non-scaling-stroke" fill="none" stroke="#f1f5f9"/>
        </g>
      </g>
    </g>
    <g transform="translate(750.0, 675.0)">
      <line x1="0" y1="0" x2="0" y2="-300" stroke="var(--accent-2)" stroke-width="2"/>
      <circle id="ITEM_2_NODE" cx="0" cy="-300" r="50" fill="var(--background)" stroke="var(--accent-2)" stroke-width="2" stroke-opacity="0.58" data-badge-layer="outline"/>
      <g transform="translate(0.0, 45.0)">
        <rect x="-150" y="-15" width="300" height="165" rx="12" fill="var(--panel)" id="ITEM_2_BG" stroke="var(--accent-2)" stroke-width="2"/>
        <text id="ITEM_2_HEAD" text-anchor="middle" font-weight="bold" font-size="27" fill="var(--accent-2)" x="0.0" y="0.0" data-bg-id="ITEM_2_BG" fill-opacity="1.0" stroke="none" style="font-size: 31px; font-family: 'Segoe UI Variable Display', 'Aptos Display', 'Inter', 'Segoe UI', Helvetica, Arial, sans-serif; font-weight: 700; font-kerning: normal; font-feature-settings: &quot;kern&quot; 1, &quot;liga&quot; 1; letter-spacing:-0.4px;" data-final-font-size="31">
          <tspan x="0.0" dy="34.02px">Call</tspan>
        </text>
        <rect id="ITEM_2_HEAD_FRAME" x="-135" y="0" width="270" height="51" fill="none"/>
        <text id="ITEM_2_BODY" text-anchor="middle" font-size="19.5" fill="var(--primary-text)" x="-0.5" y="60.0" data-bg-id="ITEM_2_BG" style="font-size: 23px; font-family: 'Segoe UI Variable Text', 'Aptos', 'Inter', 'Segoe UI', Helvetica, Arial, sans-serif; font-weight: 400; font-kerning: normal; font-feature-settings: &quot;kern&quot; 1, &quot;liga&quot; 1;" data-final-font-size="23">
          <tspan x="-0.5" dy="31.82px">Puddy receives a message</tspan>
          <tspan x="-0.5" dy="26.45px">urging her to return</tspan>
        </text>
        <rect id="ITEM_2_BODY_FRAME" x="-153" y="60" width="305" height="120" fill="none" data-side-overflow-fix="37.0|38.0"/>
      </g>
      <circle id="ITEM_2_PAD" cx="0" cy="-300" r="50" fill="var(--icon-pad-bg)" stroke="var(--accent-2)" opacity="1" fill-opacity="0.9" stroke-width="2" stroke-opacity="0.72" data-badge-layer="pad"/>
      <circle id="ITEM_2_PAD_INNER" cx="0" cy="-300" r="39.00" fill="var(--accent-2)" fill-opacity="0.12" stroke="none" data-badge-layer="tint"/>
      <circle cx="0" cy="-300" r="40" fill="none" stroke="var(--accent-2)" stroke-width="3" stroke-dasharray="6 4" display="none" data-suppressed-decoration="redundant-badge-ring"/>
      <g id="ITEM_2_ICON" transform="translate(-30.0, -330.0)" data-icon-size="60" stroke-linecap="round" stroke-linejoin="round" data-badge-treatment="clean">
        <g transform="translate(-14.571428571428571,-13.874999999999995) scale(2.7857142857142856)">
          <path d="M25.0642 23.4047L23.9155 20.598L22.2011 21.2996L23.3511 24.1097L23.3525 24.113C23.5183 24.5137 23.3281 24.9545 22.9426 25.1096L18.0368 27.1219L18.0342 27.123C17.6335 27.2888 17.1927 27.0987 17.0376 26.7132L15.8855 23.898L14.1711 24.5997L15.3202 27.4074C15.8659 28.7594 17.403 29.3881 18.741 28.8353L18.7425 28.8347L23.6372 26.8268C24.9889 26.281 25.6173 24.7444 25.065 23.4066L25.0642 23.4047ZM8 23.5L9.70824 26.7789C10.3282 27.4289 10.2982 28.4589 9.63824 29.0689C8.98824 29.6789 7.95824 29.6489 7.34824 28.9989L2.43824 23.7889C1.82824 23.1389 1.85824 22.1089 2.50824 21.4989C3.15824 20.8889 4.18824 20.9189 4.79824 21.5689L8 23.5Z" fill="#FFB02E"/>
          <path d="M29.2283 15.0788L17.6783 2.82884C16.4083 1.47884 14.1783 1.82887 13.3883 3.50887L4.79834 21.5689L9.76834 26.8389L28.3083 19.3288C30.0183 18.6388 30.4983 16.4288 29.2283 15.0788Z" fill="#F9C23C"/>
        </g>
      </g>
    </g>
    <g transform="translate(1155.0, 675.0)">
      <line x1="0" y1="0" x2="0" y2="-240" stroke="var(--accent-3)" stroke-width="2"/>
      <circle id="ITEM_3_NODE" cx="0" cy="-240" r="50" fill="var(--background)" stroke="var(--accent-3)" stroke-width="2" stroke-opacity="0.58" data-badge-layer="outline"/>
      <g transform="translate(0.0, 45.0)">
        <rect x="-150" y="-15" width="300" height="165" rx="12" fill="var(--panel)" id="ITEM_3_BG" stroke="var(--accent-3)" stroke-width="2"/>
        <text id="ITEM_3_HEAD" text-anchor="middle" font-weight="bold" font-size="27" fill="var(--accent-3)" x="0.0" y="0.0" data-bg-id="ITEM_3_BG" fill-opacity="1.0" stroke="none" style="font-size: 27px; font-family: 'Segoe UI Variable Display', 'Aptos Display', 'Inter', 'Segoe UI', Helvetica, Arial, sans-serif; font-weight: 700; font-kerning: normal; font-feature-settings: &quot;kern&quot; 1, &quot;liga&quot; 1; letter-spacing:-0.4px;" data-final-font-size="27">
          <tspan x="0.0" dy="31.58px">Investigator Arrival</tspan>
        </text>
        <rect id="ITEM_3_HEAD_FRAME" x="-135" y="0" width="270" height="51" fill="none"/>
        <text id="ITEM_3_BODY" text-anchor="middle" font-size="19.5" fill="var(--primary-text)" x="-0.5" y="60.0" data-bg-id="ITEM_3_BG" style="font-size: 23px; font-family: 'Segoe UI Variable Text', 'Aptos', 'Inter', 'Segoe UI', Helvetica, Arial, sans-serif; font-weight: 400; font-kerning: normal; font-feature-settings: &quot;kern&quot; 1, &quot;liga&quot; 1;" data-final-font-size="23">
          <tspan x="-0.5" dy="31.82px">Magee and Norman accompany</tspan>
          <tspan x="-0.5" dy="26.45px">Puddy to the site</tspan>
        </text>
        <rect id="ITEM_3_BODY_FRAME" x="-153" y="60" width="305" height="120" fill="none" data-side-overflow-fix="37.0|38.0"/>
      </g>
      <circle id="ITEM_3_PAD" cx="0" cy="-240" r="50" fill="var(--icon-pad-bg)" stroke="var(--accent-3)" opacity="1" fill-opacity="0.9" stroke-width="2" stroke-opacity="0.72" data-badge-layer="pad"/>
      <circle id="ITEM_3_PAD_INNER" cx="0" cy="-240" r="39.00" fill="var(--accent-3)" fill-opacity="0.12" stroke="none" data-badge-layer="tint"/>
      <circle cx="0" cy="-240" r="40" fill="none" stroke="var(--accent-3)" stroke-width="3" stroke-dasharray="6 4" display="none" data-suppressed-decoration="redundant-badge-ring"/>
      <g id="ITEM_3_ICON" transform="translate(-30.0, -270.0)" data-icon-size="60" stroke-linecap="round" stroke-linejoin="round" data-badge-treatment="clean">
        <g transform="translate(-14.571428571428571,-24.321428571428566) scale(2.7857142857142856)">
          <path d="M24.64 10H15.09C15.05 10 15.01 10 14.98 10C13.92 10.04 12.94 10.61 12.35 11.49L12 12L10.5659 14.985L7.98 18H4.88C3.59 18 2.5 18.84 2.13 20L2.39603 21.5L2 23V24L16 25L30 24V19.51C30 19 29.95 18.49 29.86 18L28.5453 15.2111C28.5453 15.2111 27.78 12.1 27.76 12.04C27.22 10.81 26 10 24.64 10Z" fill="#F8312F"/>
          <path d="M28.61 26H3.39C2.62 26 2 25.38 2 24.61V24H30V24.61C30 25.38 29.38 26 28.61 26Z" fill="#9B9B9B"/>
          <path d="M12 12L7.98999 18H15.03C15.56 18 15.99 17.57 15.99 17.04V12.96C15.99 12.43 15.56 12 15.03 12H12ZM23.01 18H18.97C18.44 18 18.01 17.57 18.01 17.04V12.96C18.01 12.43 18.44 12 18.97 12H23.01C23.54 12 23.97 12.43 23.97 12.96V17.04C23.97 17.57 23.54 18 23.01 18ZM27.83 12.21L29.47 16.58C29.64 17.04 29.77 17.52 29.85 18H26.94C26.41 18 25.98 17.57 25.98 17.04V13.04C25.98 12.47 26.45 12 27.02 12H27.74C27.74 12 27.81 12.15 27.83 12.21Z" fill="#26C9FC"/>
          <path d="M3.99 22V21C3.99 20.45 3.54 20 2.99 20H2.14C2.04 20.29 2 20.6 2 21.27V23H2.99C3.54 23 3.99 22.55 3.99 22Z" fill="#E6E6E6"/>
          <path d="M12.02 25.5C12.02 27.433 10.453 29 8.52002 29C6.58702 29 5.02002 27.433 5.02002 25.5C5.02002 23.567 6.58702 22 8.52002 22C10.453 22 12.02 23.567 12.02 25.5ZM27 25.5C27 27.433 25.433 29 23.5 29C21.567 29 20 27.433 20 25.5C20 23.567 21.567 22 23.5 22C25.433 22 27 23.567 27 25.5Z" fill="#321B41"/>
          <path d="M10 25.5C10 26.3284 9.32843 27 8.5 27C7.67157 27 7 26.3284 7 25.5C7 24.6716 7.67157 24 8.5 24C9.32843 24 10 24.6716 10 25.5ZM25 25.5C25 26.3284 24.3284 27 23.5 27C22.6716 27 22 26.3284 22 25.5C22 24.6716 22.6716 24 23.5 24C24.3284 24 25 24.6716 25 25.5Z" fill="#E6E6E6"/>
          <path d="M29.99 20H29.49C28.64 20 27.95 20.71 27.99 21.57C28.03 22.38 28.73 23 29.54 23H29.99V20Z" fill="#CA0B4A"/>
          <path d="M11.13 19H11.52C11.79 19 12 18.78 12 18.52V16.48C12 16.21 11.78 16 11.52 16H11.13C10.51 16 10 16.51 10 17.13V17.87C10 18.49 10.51 19 11.13 19Z" fill="#321B41"/>
        </g>
      </g>
    </g>
    <g transform="translate(1560.0, 675.0)">
      <line x1="0" y1="0" x2="0" y2="-180" stroke="var(--accent-4)" stroke-width="2"/>
      <circle id="ITEM_4_NODE" cx="0" cy="-180" r="50" fill="var(--background)" stroke="var(--accent-1)" stroke-width="2" stroke-opacity="0.58" data-badge-layer="outline"/>
      <g transform="translate(0.0, 45.0)">
        <rect x="-150" y="-15" width="300" height="165" rx="12" fill="var(--panel)" id="ITEM_4_BG" stroke="var(--accent-4)" stroke-width="2"/>
        <text id="ITEM_4_HEAD" text-anchor="middle" font-weight="bold" font-size="27" fill="var(--accent-1)" x="0.0" y="0.0" data-bg-id="ITEM_4_BG" fill-opacity="1.0" stroke="none" style="font-size: 31px; font-family: 'Segoe UI Variable Display', 'Aptos Display', 'Inter', 'Segoe UI', Helvetica, Arial, sans-serif; font-weight: 700; font-kerning: normal; font-feature-settings: &quot;kern&quot; 1, &quot;liga&quot; 1; letter-spacing:-0.4px;" data-final-font-size="31">
          <tspan x="0.0" dy="34.02px">Encounter</tspan>
        </text>
        <rect id="ITEM_4_HEAD_FRAME" x="-135" y="0" width="270" height="51" fill="none"/>
        <text id="ITEM_4_BODY" text-anchor="middle" font-size="19.5" fill="var(--primary-text)" x="0.0" y="60.0" data-bg-id="ITEM_4_BG" style="font-size: 23px; font-family: 'Segoe UI Variable Text', 'Aptos', 'Inter', 'Segoe UI', Helvetica, Arial, sans-serif; font-weight: 400; font-kerning: normal; font-feature-settings: &quot;kern&quot; 1, &quot;liga&quot; 1;" data-final-font-size="23">
          <tspan x="0.0" dy="26.53px">Puddy describes an entity</tspan>
          <tspan x="0.0" dy="26.45px">and internal abduction</tspan>
          <tspan x="0.0" dy="26.45px">experience</tspan>
        </text>
        <rect id="ITEM_4_BODY_FRAME" x="-152" y="60" width="304" height="120" fill="none" data-side-overflow-fix="38.0|38.0"/>
      </g>
      <circle id="ITEM_4_PAD" cx="0" cy="-180" r="50" fill="var(--icon-pad-bg)" stroke="var(--accent-1)" opacity="1" fill-opacity="0.9" stroke-width="2" stroke-opacity="0.72" data-badge-layer="pad"/>
      <circle id="ITEM_4_PAD_INNER" cx="0" cy="-180" r="39.00" fill="var(--accent-1)" fill-opacity="0.12" stroke="none" data-badge-layer="tint"/>
      <circle cx="0" cy="-180" r="40" fill="none" stroke="var(--accent-4)" stroke-width="3" stroke-dasharray="6 4" display="none" data-suppressed-decoration="redundant-badge-ring"/>
      <g id="ITEM_4_ICON" transform="translate(-30.0, -210.0)" data-icon-size="60" stroke-linecap="round" stroke-linejoin="round" data-badge-treatment="clean">
        <g transform="translate(-28.046511627906977,-28.046511627906977) scale(4.837209302325581)" vector-effect="non-scaling-stroke" stroke-width="2.43" stroke-linecap="round" stroke-linejoin="round" stroke-opacity="1.0">
          <path d="M5 12h14" vector-effect="non-scaling-stroke" fill="none" stroke="#f1f5f9"/>
          <path d="m12 5 7 7-7 7" vector-effect="non-scaling-stroke" fill="none" stroke="#f1f5f9"/>
        </g>
      </g>
    </g>
    <line id="PHX_SEQUENCE_MIDROUTE_ARROW_1" x1="932.0" y1="675.0" x2="988.0" y2="675.0" stroke="var(--muted-text)" opacity="0.92" stroke-width="5" stroke-linecap="round" marker-end="url(#svgc7507d82-PHX_SEQUENCE_DIRECTION_ARROW)" data-direction-cue="forward"/>
  </g>
  <text id="SOURCE_NOTE" x="134.0" y="1058.0" fill="var(--muted-text)" opacity="1" style="font-family: var(--font-family); font-size: 20px;">Source: 19730222 maureen puddy qabductionq</text>
  <text id="EDITORIAL_NOTE" x="1786.0" y="1058.0" fill="var(--semantic-uncertain)" opacity="1" style="font-family: var(--font-family); font-size: 20px;" text-anchor="end">Sensitive subject: violence, abuse, or loss of life.</text>
</svg>
